<svg width="494" height="50" viewBox="0 0 494 50" fill="none" xmlns="http://www.w3.org/2000/svg">
<g filter="url(#filter0_d_3_112)">
<mask id="path-1-outside-1_3_112" maskUnits="userSpaceOnUse" x="3" y="-1" width="488" height="52" fill="black">
<rect fill="white" x="3" y="-1" width="488" height="52"/>
<path d="M44 10V20H34V10H44ZM44 30V40H34V30H44ZM34 10H14V20H34V30H14V40H34V50H4V4.76837e-07H34V10ZM55.5648 50V4.76837e-07H65.5648V50H55.5648ZM87.1883 50V10H77.1883V4.76837e-07H107.188V10H97.1883V50H87.1883ZM118.827 50V40H148.827V50H118.827ZM128.827 10V4.76837e-07H158.827V10H128.827ZM128.827 30H148.827V20H128.827V30ZM148.827 30H158.827V40H148.827V30ZM118.827 10H128.827V20H118.827V10ZM242.023 10V20H232.023V10H242.023ZM242.023 30V40H232.023V30H242.023ZM232.023 10H212.023V20H232.023V30H212.023V40H232.023V50H202.023V4.76837e-07H232.023V10ZM283.588 4.76837e-07H293.588V40H283.588V4.76837e-07ZM283.588 50H263.588V40H283.588V50ZM253.588 4.76837e-07H263.588V40H253.588V4.76837e-07ZM305.153 50V4.76837e-07H335.153V10H315.153V20H335.153V30H315.153V50H305.153ZM335.153 10H345.153V20H335.153V10ZM325.153 30H335.153V40H325.153V30ZM335.153 40H345.153V50H335.153V40ZM396.718 10H366.718V4.76837e-07H396.718V10ZM366.718 40H356.718V10H366.718V40ZM386.718 50H366.718V40H386.718V50ZM386.718 30H376.718V20H396.718V40H386.718V30ZM438.283 10H418.283V20H438.283V30H418.283V40H438.283V50H408.283V4.76837e-07H438.283V10ZM449.922 50V4.76837e-07H479.922V10H459.922V20H479.922V30H459.922V50H449.922ZM479.922 10H489.922V20H479.922V10ZM469.922 30H479.922V40H469.922V30ZM479.922 40H489.922V50H479.922V40Z"/>
</mask>
<path d="M44 10V20H34V10H44ZM44 30V40H34V30H44ZM34 10H14V20H34V30H14V40H34V50H4V4.76837e-07H34V10ZM55.5648 50V4.76837e-07H65.5648V50H55.5648ZM87.1883 50V10H77.1883V4.76837e-07H107.188V10H97.1883V50H87.1883ZM118.827 50V40H148.827V50H118.827ZM128.827 10V4.76837e-07H158.827V10H128.827ZM128.827 30H148.827V20H128.827V30ZM148.827 30H158.827V40H148.827V30ZM118.827 10H128.827V20H118.827V10ZM242.023 10V20H232.023V10H242.023ZM242.023 30V40H232.023V30H242.023ZM232.023 10H212.023V20H232.023V30H212.023V40H232.023V50H202.023V4.76837e-07H232.023V10ZM283.588 4.76837e-07H293.588V40H283.588V4.76837e-07ZM283.588 50H263.588V40H283.588V50ZM253.588 4.76837e-07H263.588V40H253.588V4.76837e-07ZM305.153 50V4.76837e-07H335.153V10H315.153V20H335.153V30H315.153V50H305.153ZM335.153 10H345.153V20H335.153V10ZM325.153 30H335.153V40H325.153V30ZM335.153 40H345.153V50H335.153V40ZM396.718 10H366.718V4.76837e-07H396.718V10ZM366.718 40H356.718V10H366.718V40ZM386.718 50H366.718V40H386.718V50ZM386.718 30H376.718V20H396.718V40H386.718V30ZM438.283 10H418.283V20H438.283V30H418.283V40H438.283V50H408.283V4.76837e-07H438.283V10ZM449.922 50V4.76837e-07H479.922V10H459.922V20H479.922V30H459.922V50H449.922ZM479.922 10H489.922V20H479.922V10ZM469.922 30H479.922V40H469.922V30ZM479.922 40H489.922V50H479.922V40Z" fill="url(#paint0_linear_3_112)"/>
<path d="M44 10H44.5V9.5H44V10ZM44 20V20.5H44.5V20H44ZM34 20H33.5V20.5H34V20ZM34 10V9.5H33.5V10H34ZM44 30H44.5V29.5H44V30ZM44 40V40.5H44.5V40H44ZM34 40H33.5V40.5H34V40ZM34 30V29.5H33.5V30H34ZM34 10V10.5H34.5V10H34ZM14 10V9.5H13.5V10H14ZM14 20H13.5V20.5H14V20ZM34 20H34.5V19.5H34V20ZM34 30V30.5H34.5V30H34ZM14 30V29.5H13.5V30H14ZM14 40H13.5V40.5H14V40ZM34 40H34.5V39.5H34V40ZM34 50V50.5H34.5V50H34ZM4 50H3.5V50.5H4V50ZM4 4.76837e-07V-0.5H3.5V4.76837e-07H4ZM34 4.76837e-07H34.5V-0.5H34V4.76837e-07ZM43.5 10V20H44.5V10H43.5ZM44 19.5H34V20.5H44V19.5ZM34.5 20V10H33.5V20H34.5ZM34 10.5H44V9.5H34V10.5ZM43.5 30V40H44.5V30H43.5ZM44 39.5H34V40.5H44V39.5ZM34.5 40V30H33.5V40H34.5ZM34 30.5H44V29.5H34V30.5ZM34 9.5H14V10.5H34V9.5ZM13.5 10V20H14.5V10H13.5ZM14 20.5H34V19.5H14V20.5ZM33.5 20V30H34.5V20H33.5ZM34 29.5H14V30.5H34V29.5ZM13.5 30V40H14.5V30H13.5ZM14 40.5H34V39.5H14V40.5ZM33.5 40V50H34.5V40H33.5ZM34 49.5H4V50.5H34V49.5ZM4.5 50V4.76837e-07H3.5V50H4.5ZM4 0.5H34V-0.5H4V0.5ZM33.5 4.76837e-07V10H34.5V4.76837e-07H33.5ZM55.5648 50H55.0648V50.5H55.5648V50ZM55.5648 4.76837e-07V-0.5H55.0648V4.76837e-07H55.5648ZM65.5648 4.76837e-07H66.0648V-0.5H65.5648V4.76837e-07ZM65.5648 50V50.5H66.0648V50H65.5648ZM56.0648 50V4.76837e-07H55.0648V50H56.0648ZM55.5648 0.5H65.5648V-0.5H55.5648V0.5ZM65.0648 4.76837e-07V50H66.0648V4.76837e-07H65.0648ZM65.5648 49.5H55.5648V50.5H65.5648V49.5ZM87.1883 50H86.6883V50.5H87.1883V50ZM87.1883 10H87.6883V9.5H87.1883V10ZM77.1883 10H76.6883V10.5H77.1883V10ZM77.1883 4.76837e-07V-0.5H76.6883V4.76837e-07H77.1883ZM107.188 4.76837e-07H107.688V-0.5H107.188V4.76837e-07ZM107.188 10V10.5H107.688V10H107.188ZM97.1883 10V9.5H96.6883V10H97.1883ZM97.1883 50V50.5H97.6883V50H97.1883ZM87.6883 50V10H86.6883V50H87.6883ZM87.1883 9.5H77.1883V10.5H87.1883V9.5ZM77.6883 10V4.76837e-07H76.6883V10H77.6883ZM77.1883 0.5H107.188V-0.5H77.1883V0.5ZM106.688 4.76837e-07V10H107.688V4.76837e-07H106.688ZM107.188 9.5H97.1883V10.5H107.188V9.5ZM96.6883 10V50H97.6883V10H96.6883ZM97.1883 49.5H87.1883V50.5H97.1883V49.5ZM118.827 50H118.327V50.5H118.827V50ZM118.827 40V39.5H118.327V40H118.827ZM148.827 40H149.327V39.5H148.827V40ZM148.827 50V50.5H149.327V50H148.827ZM128.827 10H128.327V10.5H128.827V10ZM128.827 4.76837e-07V-0.5H128.327V4.76837e-07H128.827ZM158.827 4.76837e-07H159.327V-0.5H158.827V4.76837e-07ZM158.827 10V10.5H159.327V10H158.827ZM128.827 30H128.327V30.5H128.827V30ZM148.827 30V30.5H149.327V30H148.827ZM148.827 20H149.327V19.5H148.827V20ZM128.827 20V19.5H128.327V20H128.827ZM148.827 30V29.5H148.327V30H148.827ZM158.827 30H159.327V29.5H158.827V30ZM158.827 40V40.5H159.327V40H158.827ZM148.827 40H148.327V40.5H148.827V40ZM118.827 10V9.5H118.327V10H118.827ZM128.827 10H129.327V9.5H128.827V10ZM128.827 20V20.5H129.327V20H128.827ZM118.827 20H118.327V20.5H118.827V20ZM119.327 50V40H118.327V50H119.327ZM118.827 40.5H148.827V39.5H118.827V40.5ZM148.327 40V50H149.327V40H148.327ZM148.827 49.5H118.827V50.5H148.827V49.5ZM129.327 10V4.76837e-07H128.327V10H129.327ZM128.827 0.5H158.827V-0.5H128.827V0.5ZM158.327 4.76837e-07V10H159.327V4.76837e-07H158.327ZM158.827 9.5H128.827V10.5H158.827V9.5ZM128.827 30.5H148.827V29.5H128.827V30.5ZM149.327 30V20H148.327V30H149.327ZM148.827 19.5H128.827V20.5H148.827V19.5ZM128.327 20V30H129.327V20H128.327ZM148.827 30.5H158.827V29.5H148.827V30.5ZM158.327 30V40H159.327V30H158.327ZM158.827 39.5H148.827V40.5H158.827V39.5ZM149.327 40V30H148.327V40H149.327ZM118.827 10.5H128.827V9.5H118.827V10.5ZM128.327 10V20H129.327V10H128.327ZM128.827 19.5H118.827V20.5H128.827V19.5ZM119.327 20V10H118.327V20H119.327ZM242.023 10H242.523V9.5H242.023V10ZM242.023 20V20.5H242.523V20H242.023ZM232.023 20H231.523V20.5H232.023V20ZM232.023 10V9.5H231.523V10H232.023ZM242.023 30H242.523V29.5H242.023V30ZM242.023 40V40.5H242.523V40H242.023ZM232.023 40H231.523V40.5H232.023V40ZM232.023 30V29.5H231.523V30H232.023ZM232.023 10V10.5H232.523V10H232.023ZM212.023 10V9.5H211.523V10H212.023ZM212.023 20H211.523V20.5H212.023V20ZM232.023 20H232.523V19.5H232.023V20ZM232.023 30V30.5H232.523V30H232.023ZM212.023 30V29.5H211.523V30H212.023ZM212.023 40H211.523V40.5H212.023V40ZM232.023 40H232.523V39.5H232.023V40ZM232.023 50V50.5H232.523V50H232.023ZM202.023 50H201.523V50.5H202.023V50ZM202.023 4.76837e-07V-0.5H201.523V4.76837e-07H202.023ZM232.023 4.76837e-07H232.523V-0.5H232.023V4.76837e-07ZM241.523 10V20H242.523V10H241.523ZM242.023 19.5H232.023V20.5H242.023V19.5ZM232.523 20V10H231.523V20H232.523ZM232.023 10.5H242.023V9.5H232.023V10.5ZM241.523 30V40H242.523V30H241.523ZM242.023 39.5H232.023V40.5H242.023V39.5ZM232.523 40V30H231.523V40H232.523ZM232.023 30.5H242.023V29.5H232.023V30.5ZM232.023 9.5H212.023V10.5H232.023V9.5ZM211.523 10V20H212.523V10H211.523ZM212.023 20.5H232.023V19.5H212.023V20.5ZM231.523 20V30H232.523V20H231.523ZM232.023 29.5H212.023V30.5H232.023V29.5ZM211.523 30V40H212.523V30H211.523ZM212.023 40.5H232.023V39.5H212.023V40.5ZM231.523 40V50H232.523V40H231.523ZM232.023 49.5H202.023V50.5H232.023V49.5ZM202.523 50V4.76837e-07H201.523V50H202.523ZM202.023 0.5H232.023V-0.5H202.023V0.5ZM231.523 4.76837e-07V10H232.523V4.76837e-07H231.523ZM283.588 4.76837e-07V-0.5H283.088V4.76837e-07H283.588ZM293.588 4.76837e-07H294.088V-0.5H293.588V4.76837e-07ZM293.588 40V40.5H294.088V40H293.588ZM283.588 40H283.088V40.5H283.588V40ZM283.588 50V50.5H284.088V50H283.588ZM263.588 50H263.088V50.5H263.588V50ZM263.588 40V39.5H263.088V40H263.588ZM283.588 40H284.088V39.5H283.588V40ZM253.588 4.76837e-07V-0.5H253.088V4.76837e-07H253.588ZM263.588 4.76837e-07H264.088V-0.5H263.588V4.76837e-07ZM263.588 40V40.5H264.088V40H263.588ZM253.588 40H253.088V40.5H253.588V40ZM283.588 0.5H293.588V-0.5H283.588V0.5ZM293.088 4.76837e-07V40H294.088V4.76837e-07H293.088ZM293.588 39.5H283.588V40.5H293.588V39.5ZM284.088 40V4.76837e-07H283.088V40H284.088ZM283.588 49.5H263.588V50.5H283.588V49.5ZM264.088 50V40H263.088V50H264.088ZM263.588 40.5H283.588V39.5H263.588V40.5ZM283.088 40V50H284.088V40H283.088ZM253.588 0.5H263.588V-0.5H253.588V0.5ZM263.088 4.76837e-07V40H264.088V4.76837e-07H263.088ZM263.588 39.5H253.588V40.5H263.588V39.5ZM254.088 40V4.76837e-07H253.088V40H254.088ZM305.153 50H304.653V50.5H305.153V50ZM305.153 4.76837e-07V-0.5H304.653V4.76837e-07H305.153ZM335.153 4.76837e-07H335.653V-0.5H335.153V4.76837e-07ZM335.153 10V10.5H335.653V10H335.153ZM315.153 10V9.5H314.653V10H315.153ZM315.153 20H314.653V20.5H315.153V20ZM335.153 20H335.653V19.5H335.153V20ZM335.153 30V30.5H335.653V30H335.153ZM315.153 30V29.5H314.653V30H315.153ZM315.153 50V50.5H315.653V50H315.153ZM335.153 10V9.5H334.653V10H335.153ZM345.153 10H345.653V9.5H345.153V10ZM345.153 20V20.5H345.653V20H345.153ZM335.153 20H334.653V20.5H335.153V20ZM325.153 30V29.5H324.653V30H325.153ZM335.153 30H335.653V29.5H335.153V30ZM335.153 40V40.5H335.653V40H335.153ZM325.153 40H324.653V40.5H325.153V40ZM335.153 40V39.5H334.653V40H335.153ZM345.153 40H345.653V39.5H345.153V40ZM345.153 50V50.5H345.653V50H345.153ZM335.153 50H334.653V50.5H335.153V50ZM305.653 50V4.76837e-07H304.653V50H305.653ZM305.153 0.5H335.153V-0.5H305.153V0.5ZM334.653 4.76837e-07V10H335.653V4.76837e-07H334.653ZM335.153 9.5H315.153V10.5H335.153V9.5ZM314.653 10V20H315.653V10H314.653ZM315.153 20.5H335.153V19.5H315.153V20.5ZM334.653 20V30H335.653V20H334.653ZM335.153 29.5H315.153V30.5H335.153V29.5ZM314.653 30V50H315.653V30H314.653ZM315.153 49.5H305.153V50.5H315.153V49.5ZM335.153 10.5H345.153V9.5H335.153V10.5ZM344.653 10V20H345.653V10H344.653ZM345.153 19.5H335.153V20.5H345.153V19.5ZM335.653 20V10H334.653V20H335.653ZM325.153 30.5H335.153V29.5H325.153V30.5ZM334.653 30V40H335.653V30H334.653ZM335.153 39.5H325.153V40.5H335.153V39.5ZM325.653 40V30H324.653V40H325.653ZM335.153 40.5H345.153V39.5H335.153V40.5ZM344.653 40V50H345.653V40H344.653ZM345.153 49.5H335.153V50.5H345.153V49.5ZM335.653 50V40H334.653V50H335.653ZM396.718 10V10.5H397.218V10H396.718ZM366.718 10H366.218V10.5H366.718V10ZM366.718 4.76837e-07V-0.5H366.218V4.76837e-07H366.718ZM396.718 4.76837e-07H397.218V-0.5H396.718V4.76837e-07ZM366.718 40V40.5H367.218V40H366.718ZM356.718 40H356.218V40.5H356.718V40ZM356.718 10V9.5H356.218V10H356.718ZM366.718 10H367.218V9.5H366.718V10ZM386.718 50V50.5H387.218V50H386.718ZM366.718 50H366.218V50.5H366.718V50ZM366.718 40V39.5H366.218V40H366.718ZM386.718 40H387.218V39.5H386.718V40ZM386.718 30H387.218V29.5H386.718V30ZM376.718 30H376.218V30.5H376.718V30ZM376.718 20V19.5H376.218V20H376.718ZM396.718 20H397.218V19.5H396.718V20ZM396.718 40V40.5H397.218V40H396.718ZM386.718 40H386.218V40.5H386.718V40ZM396.718 9.5H366.718V10.5H396.718V9.5ZM367.218 10V4.76837e-07H366.218V10H367.218ZM366.718 0.5H396.718V-0.5H366.718V0.5ZM396.218 4.76837e-07V10H397.218V4.76837e-07H396.218ZM366.718 39.5H356.718V40.5H366.718V39.5ZM357.218 40V10H356.218V40H357.218ZM356.718 10.5H366.718V9.5H356.718V10.5ZM366.218 10V40H367.218V10H366.218ZM386.718 49.5H366.718V50.5H386.718V49.5ZM367.218 50V40H366.218V50H367.218ZM366.718 40.5H386.718V39.5H366.718V40.5ZM386.218 40V50H387.218V40H386.218ZM386.718 29.5H376.718V30.5H386.718V29.5ZM377.218 30V20H376.218V30H377.218ZM376.718 20.5H396.718V19.5H376.718V20.5ZM396.218 20V40H397.218V20H396.218ZM396.718 39.5H386.718V40.5H396.718V39.5ZM387.218 40V30H386.218V40H387.218ZM438.283 10V10.5H438.783V10H438.283ZM418.283 10V9.5H417.783V10H418.283ZM418.283 20H417.783V20.5H418.283V20ZM438.283 20H438.783V19.5H438.283V20ZM438.283 30V30.5H438.783V30H438.283ZM418.283 30V29.5H417.783V30H418.283ZM418.283 40H417.783V40.5H418.283V40ZM438.283 40H438.783V39.5H438.283V40ZM438.283 50V50.5H438.783V50H438.283ZM408.283 50H407.783V50.5H408.283V50ZM408.283 4.76837e-07V-0.5H407.783V4.76837e-07H408.283ZM438.283 4.76837e-07H438.783V-0.5H438.283V4.76837e-07ZM438.283 9.5H418.283V10.5H438.283V9.5ZM417.783 10V20H418.783V10H417.783ZM418.283 20.5H438.283V19.5H418.283V20.5ZM437.783 20V30H438.783V20H437.783ZM438.283 29.5H418.283V30.5H438.283V29.5ZM417.783 30V40H418.783V30H417.783ZM418.283 40.5H438.283V39.5H418.283V40.5ZM437.783 40V50H438.783V40H437.783ZM438.283 49.5H408.283V50.5H438.283V49.5ZM408.783 50V4.76837e-07H407.783V50H408.783ZM408.283 0.5H438.283V-0.5H408.283V0.5ZM437.783 4.76837e-07V10H438.783V4.76837e-07H437.783ZM449.922 50H449.422V50.5H449.922V50ZM449.922 4.76837e-07V-0.5H449.422V4.76837e-07H449.922ZM479.922 4.76837e-07H480.422V-0.5H479.922V4.76837e-07ZM479.922 10V10.5H480.422V10H479.922ZM459.922 10V9.5H459.422V10H459.922ZM459.922 20H459.422V20.5H459.922V20ZM479.922 20H480.422V19.5H479.922V20ZM479.922 30V30.5H480.422V30H479.922ZM459.922 30V29.5H459.422V30H459.922ZM459.922 50V50.5H460.422V50H459.922ZM479.922 10V9.5H479.422V10H479.922ZM489.922 10H490.422V9.5H489.922V10ZM489.922 20V20.5H490.422V20H489.922ZM479.922 20H479.422V20.5H479.922V20ZM469.922 30V29.5H469.422V30H469.922ZM479.922 30H480.422V29.5H479.922V30ZM479.922 40V40.5H480.422V40H479.922ZM469.922 40H469.422V40.5H469.922V40ZM479.922 40V39.5H479.422V40H479.922ZM489.922 40H490.422V39.5H489.922V40ZM489.922 50V50.5H490.422V50H489.922ZM479.922 50H479.422V50.5H479.922V50ZM450.422 50V4.76837e-07H449.422V50H450.422ZM449.922 0.5H479.922V-0.5H449.922V0.5ZM479.422 4.76837e-07V10H480.422V4.76837e-07H479.422ZM479.922 9.5H459.922V10.5H479.922V9.5ZM459.422 10V20H460.422V10H459.422ZM459.922 20.5H479.922V19.5H459.922V20.5ZM479.422 20V30H480.422V20H479.422ZM479.922 29.5H459.922V30.5H479.922V29.5ZM459.422 30V50H460.422V30H459.422ZM459.922 49.5H449.922V50.5H459.922V49.5ZM479.922 10.5H489.922V9.5H479.922V10.5ZM489.422 10V20H490.422V10H489.422ZM489.922 19.5H479.922V20.5H489.922V19.5ZM480.422 20V10H479.422V20H480.422ZM469.922 30.5H479.922V29.5H469.922V30.5ZM479.422 30V40H480.422V30H479.422ZM479.922 39.5H469.922V40.5H479.922V39.5ZM470.422 40V30H469.422V40H470.422ZM479.922 40.5H489.922V39.5H479.922V40.5ZM489.422 40V50H490.422V40H489.422ZM489.922 49.5H479.922V50.5H489.922V49.5ZM480.422 50V40H479.422V50H480.422Z" fill="black" mask="url(#path-1-outside-1_3_112)"/>
</g>
<defs>
<filter id="filter0_d_3_112" x="0" y="0" width="493.922" height="58" filterUnits="userSpaceOnUse" color-interpolation-filters="sRGB">
<feFlood flood-opacity="0" result="BackgroundImageFix"/>
<feColorMatrix in="SourceAlpha" type="matrix" values="0 0 0 0 0 0 0 0 0 0 0 0 0 0 0 0 0 0 127 0" result="hardAlpha"/>
<feOffset dy="4"/>
<feGaussianBlur stdDeviation="2"/>
<feComposite in2="hardAlpha" operator="out"/>
<feColorMatrix type="matrix" values="0 0 0 0 0 0 0 0 0 0 0 0 0 0 0 0 0 0 0.25 0"/>
<feBlend mode="normal" in2="BackgroundImageFix" result="effect1_dropShadow_3_112"/>
<feBlend mode="normal" in="SourceGraphic" in2="effect1_dropShadow_3_112" result="shape"/>
</filter>
<linearGradient id="paint0_linear_3_112" x1="247.5" y1="-14" x2="247.5" y2="49" gradientUnits="userSpaceOnUse">
<stop offset="0.34" stop-color="#FF4500"/>
<stop offset="0.73" stop-color="#FF8C00"/>
</linearGradient>
</defs>
</svg>
